<?xml version="1.0" encoding="UTF-8" standalone="no"?>
<!-- Created with Inkscape (http://www.inkscape.org/) -->

<svg
   width="160.50452mm"
   height="214.65724mm"
   viewBox="0 0 160.50452 214.65724"
   version="1.1"
   id="svg5"
   xmlns="http://www.w3.org/2000/svg"
   xmlnsSvg="http://www.w3.org/2000/svg">
  <defs
     id="defs2" />
  <g
     id="layer1"
     transform="translate(-25.013528,-21.216632)">
    <g
       id="g1659"
       transform="translate(2.4987958,8.2103366)">
      <path
         style="fill:#d0d0d0;fill-opacity:1;stroke-width:0.0846667"
         d="m 101.93986,227.63583 c 0.45403,-0.0152 1.19698,-0.0152 1.651,0 0.45403,0.0152 0.0825,0.0277 -0.8255,0.0277 -0.90805,0 -1.27952,-0.0125 -0.8255,-0.0277 z m -2.751665,-0.0776 c 0.05821,-0.0235 0.153458,-0.0235 0.211667,0 0.05821,0.0235 0.01058,0.0427 -0.105834,0.0427 -0.116416,0 -0.164041,-0.0192 -0.105833,-0.0427 z m 6.942665,0 c 0.0582,-0.0235 0.15346,-0.0235 0.21167,0 0.0582,0.0235 0.0106,0.0427 -0.10584,0.0427 -0.11641,0 -0.16404,-0.0192 -0.10583,-0.0427 z m -8.207373,-0.0864 c 0.06112,-0.0245 0.134146,-0.0214 0.16228,0.007 0.02813,0.0281 -0.02188,0.0482 -0.111125,0.0445 -0.09864,-0.004 -0.118694,-0.0241 -0.05116,-0.0512 z m 9.567333,0 c 0.0611,-0.0245 0.13415,-0.0214 0.16228,0.007 0.0281,0.0281 -0.0219,0.0482 -0.11112,0.0445 -0.0986,-0.004 -0.1187,-0.0241 -0.0512,-0.0512 z m 14.41589,-5.24088 c 0.004,-0.0986 0.0241,-0.1187 0.0511,-0.0512 0.0245,0.0611 0.0215,0.13415 -0.007,0.16228 -0.0281,0.0281 -0.0481,-0.0219 -0.0445,-0.11112 z m -19.83456,-36.24579 c 0.0611,-0.0245 0.13415,-0.0214 0.16228,0.007 0.0281,0.0281 -0.0219,0.0481 -0.11112,0.0445 -0.0986,-0.004 -0.1187,-0.0241 -0.0512,-0.0512 z m 5.68854,-1.91598 c 0,-0.0146 0.12383,-0.1384 0.27517,-0.27517 l 0.27517,-0.24868 -0.24868,0.27517 c -0.2318,0.2565 -0.30166,0.31409 -0.30166,0.24868 z m 2.39691,-5.43451 c 8.5e-4,-0.2794 0.0163,-0.38349 0.0351,-0.23132 0.0189,0.15218 0.0185,0.38078 -8.5e-4,0.508 -0.0193,0.12723 -0.0347,0.003 -0.0343,-0.27668 z m 19.36911,-2.97039 c 0.004,-0.0986 0.0241,-0.11869 0.0511,-0.0512 0.0245,0.0611 0.0215,0.13414 -0.007,0.16228 -0.0281,0.0281 -0.0481,-0.0219 -0.0445,-0.11113 z m -53.570159,-1.13595 c 0,-0.44238 0.01427,-0.62335 0.03171,-0.40216 0.01744,0.22119 0.01744,0.58314 0,0.80433 -0.01744,0.22119 -0.03171,0.0402 -0.03171,-0.40217 z m 31.968919,-1.16416 -0.29178,-0.3175 0.3175,0.29178 c 0.17463,0.16047 0.3175,0.30335 0.3175,0.3175 0,0.0647 -0.0716,0.004 -0.34322,-0.29178 z m 21.60793,0.0635 c 0,-0.11642 0.0192,-0.16404 0.0427,-0.10584 0.0235,0.0582 0.0235,0.15346 0,0.21167 -0.0235,0.0582 -0.0427,0.0106 -0.0427,-0.10583 z m -24.12031,-2.794 c 0,-0.20955 0.0165,-0.29528 0.0367,-0.1905 0.0202,0.10477 0.0202,0.27622 0,0.381 -0.0202,0.10477 -0.0367,0.019 -0.0367,-0.1905 z m -5.25104,-1.82034 c 9.3e-4,-0.18626 0.0183,-0.2525 0.0385,-0.14717 0.0203,0.10531 0.0195,0.25771 -0.002,0.33866 -0.0212,0.081 -0.0378,-0.005 -0.0368,-0.19149 z m 5.16637,-0.97366 c 0,-0.20955 0.0165,-0.29528 0.0367,-0.1905 0.0202,0.10477 0.0202,0.27622 0,0.381 -0.0202,0.10477 -0.0367,0.019 -0.0367,-0.1905 z m -5.08,-1.86267 c 0,-0.20955 0.0165,-0.29527 0.0367,-0.1905 0.0202,0.10478 0.0202,0.27623 0,0.381 -0.0202,0.10478 -0.0367,0.019 -0.0367,-0.1905 z m 4.99363,-0.97367 c 9.3e-4,-0.18626 0.0183,-0.2525 0.0385,-0.14717 0.0203,0.10532 0.0195,0.25772 -0.002,0.33866 -0.0212,0.081 -0.0378,-0.005 -0.0368,-0.19149 z m -4.90896,-1.82033 c 0,-0.20955 0.0165,-0.29527 0.0367,-0.1905 0.0202,0.10478 0.0202,0.27623 0,0.381 -0.0202,0.10478 -0.0367,0.0191 -0.0367,-0.1905 z m 4.826,-1.016 c 0,-0.20955 0.0165,-0.29527 0.0367,-0.1905 0.0202,0.10478 0.0202,0.27623 0,0.381 -0.0202,0.10478 -0.0367,0.019 -0.0367,-0.1905 z m 60.68294,-1.38664 c 0,-0.0176 0.0667,-0.0842 0.14816,-0.14816 0.13429,-0.10531 0.13728,-0.10232 0.032,0.032 -0.1106,0.14103 -0.18013,0.18588 -0.18013,0.11619 z M 100.41776,160.389 c 0,-0.20955 0.0165,-0.29527 0.0367,-0.1905 0.0202,0.10478 0.0202,0.27623 0,0.381 -0.0202,0.10478 -0.0367,0.019 -0.0367,-0.1905 z m -61.372107,-0.1905 -0.16129,-0.1905 0.1905,0.16129 c 0.104775,0.0887 0.1905,0.17443 0.1905,0.1905 0,0.0678 -0.06814,0.0177 -0.21971,-0.16129 z m 66.028767,-0.8255 c 0,-0.20955 0.0165,-0.29527 0.0367,-0.1905 0.0202,0.10478 0.0202,0.27623 0,0.381 -0.0202,0.10478 -0.0367,0.0191 -0.0367,-0.1905 z m -4.57371,-1.82033 c 9.4e-4,-0.18627 0.0183,-0.2525 0.0385,-0.14718 0.0203,0.10532 0.0195,0.25772 -0.002,0.33867 -0.0212,0.0809 -0.0378,-0.005 -0.0368,-0.19149 z m -64.797756,-0.6985 -0.205258,-0.23284 0.232833,0.20526 c 0.217619,0.19185 0.271662,0.26041 0.205258,0.26041 -0.01516,0 -0.119939,-0.10477 -0.232833,-0.23283 z M 104.98976,156.579 c 0,-0.20955 0.0165,-0.29527 0.0367,-0.1905 0.0202,0.10478 0.0202,0.27623 0,0.381 -0.0202,0.10478 -0.0367,0.019 -0.0367,-0.1905 z m 65.29727,-0.254 c 0.0843,-0.0931 0.17229,-0.16933 0.19558,-0.16933 0.0233,0 -0.0266,0.0762 -0.11092,0.16933 -0.0843,0.0931 -0.17229,0.16933 -0.19558,0.16933 -0.0233,0 0.0266,-0.0762 0.11092,-0.16933 z m 0.889,-0.9633 c 0,-0.0176 0.0667,-0.0842 0.14816,-0.14817 0.13429,-0.10531 0.13728,-0.10232 0.032,0.032 -0.1106,0.14103 -0.18013,0.18589 -0.18013,0.1162 z m -70.58894,-0.64537 c 0,-0.20955 0.0165,-0.29527 0.0367,-0.1905 0.0202,0.10478 0.0202,0.27623 0,0.381 -0.0202,0.10478 -0.0367,0.019 -0.0367,-0.1905 z m -66.835864,0.0212 c -0.105308,-0.13429 -0.10232,-0.13728 0.03197,-0.032 0.141029,0.11061 0.185886,0.18014 0.116197,0.18014 -0.01758,0 -0.08425,-0.0667 -0.148167,-0.14817 z m 71.152154,-0.99483 c 9.3e-4,-0.18627 0.0183,-0.2525 0.0385,-0.14718 0.0203,0.10532 0.0195,0.25772 -0.002,0.33867 -0.0212,0.0809 -0.0378,-0.005 -0.0368,-0.19149 z m -4.23162,-1.82034 c 0,-0.20955 0.0165,-0.29527 0.0367,-0.1905 0.0202,0.10478 0.0202,0.27623 0,0.381 -0.0202,0.10478 -0.0367,0.0191 -0.0367,-0.1905 z m 4.14866,-1.016 c 0,-0.20955 0.0165,-0.29527 0.0367,-0.1905 0.0202,0.10478 0.0202,0.27623 0,0.381 -0.0202,0.10478 -0.0367,0.019 -0.0367,-0.1905 z m -4.064,-1.778 c 0,-0.20955 0.0165,-0.29527 0.0367,-0.1905 0.0202,0.10478 0.0202,0.27623 0,0.381 -0.0202,0.10478 -0.0367,0.019 -0.0367,-0.1905 z m 3.97934,-1.016 c 0,-0.20955 0.0165,-0.29527 0.0367,-0.1905 0.0202,0.10478 0.0202,0.27623 0,0.381 -0.0202,0.10478 -0.0367,0.019 -0.0367,-0.1905 z m -3.89467,-1.778 c 0,-0.20955 0.0165,-0.29527 0.0367,-0.1905 0.0202,0.10478 0.0202,0.27623 0,0.381 -0.0202,0.10478 -0.0367,0.0191 -0.0367,-0.1905 z m 3.81,-1.016 c 0,-0.20955 0.0165,-0.29527 0.0367,-0.1905 0.0202,0.10478 0.0202,0.27623 0,0.381 -0.0202,0.10478 -0.0367,0.019 -0.0367,-0.1905 z m -3.72533,-1.86266 c 0,-0.20955 0.0165,-0.29528 0.0367,-0.1905 0.0202,0.10477 0.0202,0.27622 0,0.381 -0.0202,0.10477 -0.0367,0.019 -0.0367,-0.1905 z m 3.64066,-0.93134 c 0,-0.20955 0.0165,-0.29527 0.0367,-0.1905 0.0202,0.10478 0.0202,0.27623 0,0.381 -0.0202,0.10478 -0.0367,0.0191 -0.0367,-0.1905 z m -3.556,-1.86266 c 0,-0.20955 0.0165,-0.29528 0.0367,-0.1905 0.0202,0.10477 0.0202,0.27622 0,0.381 -0.0202,0.10477 -0.0367,0.019 -0.0367,-0.1905 z m 3.46963,-0.97367 c 9.3e-4,-0.18627 0.0183,-0.2525 0.0385,-0.14717 0.0203,0.10531 0.0195,0.25771 -0.002,0.33866 -0.0212,0.0809 -0.0378,-0.005 -0.0368,-0.19149 z m -3.38496,-1.82033 c 0,-0.20955 0.0165,-0.29528 0.0367,-0.1905 0.0202,0.10477 0.0202,0.27622 0,0.381 -0.0202,0.10477 -0.0367,0.019 -0.0367,-0.1905 z m 3.302,-1.016 c 0,-0.20955 0.0165,-0.29528 0.0367,-0.1905 0.0202,0.10477 0.0202,0.27622 0,0.381 -0.0202,0.10477 -0.0367,0.019 -0.0367,-0.1905 z m -3.21733,-1.778 c 0,-0.20955 0.0165,-0.29528 0.0367,-0.1905 0.0202,0.10477 0.0202,0.27622 0,0.381 -0.0202,0.10477 -0.0367,0.0191 -0.0367,-0.1905 z m 3.13266,-1.016 c 0,-0.20955 0.0165,-0.29528 0.0367,-0.1905 0.0202,0.10477 0.0202,0.27622 0,0.381 -0.0202,0.10477 -0.0367,0.019 -0.0367,-0.1905 z m -3.04971,-1.82034 c 9.4e-4,-0.18626 0.0183,-0.2525 0.0385,-0.14717 0.0203,0.10532 0.0195,0.25772 -0.002,0.33867 -0.0212,0.0809 -0.0378,-0.005 -0.0368,-0.1915 z m 2.96505,-0.97366 c 0,-0.20955 0.0165,-0.29528 0.0367,-0.1905 0.0202,0.10477 0.0202,0.27622 0,0.381 -0.0202,0.10477 -0.0367,0.0191 -0.0367,-0.1905 z m -2.87867,-1.86267 c 0,-0.20955 0.0165,-0.29527 0.0367,-0.1905 0.0202,0.10478 0.0202,0.27623 0,0.381 -0.0202,0.10478 -0.0367,0.019 -0.0367,-0.1905 z m 2.79229,-0.97367 c 9.3e-4,-0.18626 0.0183,-0.2525 0.0385,-0.14717 0.0203,0.10532 0.0195,0.25772 -0.002,0.33867 -0.0212,0.0809 -0.0378,-0.005 -0.0368,-0.1915 z m -2.70762,-1.82033 c 0,-0.20955 0.0165,-0.29527 0.0367,-0.1905 0.0202,0.10478 0.0202,0.27623 0,0.381 -0.0202,0.10478 -0.0367,0.0191 -0.0367,-0.1905 z m 2.62466,-1.016 c 0,-0.20955 0.0165,-0.29527 0.0367,-0.1905 0.0202,0.10478 0.0202,0.27623 0,0.381 -0.0202,0.10478 -0.0367,0.019 -0.0367,-0.1905 z m -2.54,-1.778 c 0,-0.20955 0.0165,-0.29527 0.0367,-0.1905 0.0202,0.10478 0.0202,0.27623 0,0.381 -0.0202,0.10478 -0.0367,0.019 -0.0367,-0.1905 z m 2.45534,-1.016 c 0,-0.20955 0.0165,-0.29527 0.0367,-0.1905 0.0202,0.10478 0.0202,0.27623 0,0.381 -0.0202,0.10478 -0.0367,0.0191 -0.0367,-0.1905 z m -2.37238,-1.82033 c 9.3e-4,-0.18627 0.0183,-0.2525 0.0385,-0.14718 0.0203,0.10532 0.0195,0.25772 -0.002,0.33867 -0.0212,0.0809 -0.0378,-0.005 -0.0368,-0.19149 z m 2.28771,-0.97367 c 0,-0.20955 0.0165,-0.29527 0.0367,-0.1905 0.0202,0.10478 0.0202,0.27623 0,0.381 -0.0202,0.10478 -0.0367,0.0191 -0.0367,-0.1905 z m -2.20133,-1.86266 c 0,-0.20955 0.0165,-0.29528 0.0367,-0.1905 0.0202,0.10477 0.0202,0.27622 0,0.381 -0.0202,0.10477 -0.0367,0.0191 -0.0367,-0.1905 z m -1.01129,-3.59834 c 0,-0.32596 0.0157,-0.44894 0.034,-0.27328 0.0183,0.17567 0.018,0.44237 -8.4e-4,0.59267 -0.0187,0.1503 -0.0337,0.007 -0.0333,-0.31939 z m 7.29057,-7.85283 -0.24868,-0.27517 0.27517,0.24868 c 0.2565,0.2318 0.31409,0.30166 0.24867,0.30166 -0.0146,0 -0.13839,-0.12383 -0.27516,-0.27517 z m 8.85054,-7.831668 -0.54789,-0.5715 0.5715,0.547887 c 0.53084,0.508905 0.61021,0.595113 0.54789,0.595113 -0.013,0 -0.27016,-0.257175 -0.5715,-0.5715 z m 0.17178,-11.567803 c 0,-0.01758 0.0667,-0.08425 0.14817,-0.148167 0.13429,-0.105308 0.13728,-0.10232 0.032,0.03197 -0.11061,0.14103 -0.18014,0.185886 -0.18014,0.116197 z M 96.912558,79.045452 c -0.105308,-0.134289 -0.102319,-0.137278 0.03197,-0.03197 0.14103,0.110609 0.185886,0.180137 0.116197,0.180137 -0.01758,0 -0.08425,-0.06668 -0.148167,-0.148167 z M 171.41922,31.293453 c -0.1053,-0.13429 -0.10232,-0.137278 0.032,-0.03197 0.14103,0.110609 0.18589,0.180137 0.1162,0.180137 -0.0176,0 -0.0842,-0.06668 -0.14817,-0.148167 z m -0.88624,-0.973666 -0.16129,-0.1905 0.1905,0.16129 c 0.10478,0.08871 0.1905,0.17443 0.1905,0.1905 0,0.06775 -0.0681,0.01773 -0.21971,-0.16129 z M 35.328363,29.91762 c 0.08429,-0.09313 0.172297,-0.169333 0.19558,-0.169333 0.02328,0 -0.02663,0.0762 -0.110913,0.169333 -0.08429,0.09313 -0.172297,0.169333 -0.19558,0.169333 -0.02328,0 0.02663,-0.0762 0.110913,-0.169333 z m 132.756197,-2.137833 -1.1842,-1.2065 1.2065,1.184198 c 0.66358,0.651307 1.2065,1.194232 1.2065,1.2065 0,0.06065 -0.12874,-0.06342 -1.2288,-1.184198 z M 39.477029,25.768953 c 0.08429,-0.09313 0.172297,-0.169333 0.19558,-0.169333 0.02328,0 -0.02663,0.0762 -0.110913,0.169333 -0.08429,0.09313 -0.172297,0.169334 -0.19558,0.169334 -0.02328,0 0.02663,-0.0762 0.110913,-0.169334 z M 165.57722,25.366787 c -0.1053,-0.13429 -0.10232,-0.137279 0.032,-0.03197 0.0815,0.06391 0.14817,0.130589 0.14817,0.148166 0,0.06969 -0.0695,0.02483 -0.18014,-0.116196 z M 40.450696,24.890317 c 0,-0.01758 0.06667,-0.08425 0.148167,-0.148167 0.13429,-0.105309 0.137278,-0.10232 0.03197,0.03197 -0.110609,0.141029 -0.180137,0.185886 -0.180137,0.116197 z"
         id="path1675" />
      <path
         style="fill:#b9b9b9;fill-opacity:1;stroke-width:0.0846667"
         d="m 53.044863,170.40453 c 0.104775,-0.0202 0.276225,-0.0202 0.381,0 0.104775,0.0202 0.01905,0.0367 -0.1905,0.0367 -0.20955,0 -0.295275,-0.0165 -0.1905,-0.0367 z M 22.514732,138.29095 c 0,-0.11642 0.01922,-0.16404 0.04271,-0.10583 0.02349,0.0582 0.02349,0.15346 0,0.21166 -0.02349,0.0582 -0.04271,0.0106 -0.04271,-0.10583 z m 79.980758,-34.26317 c 0.0611,-0.0245 0.13414,-0.0215 0.16228,0.007 0.0281,0.0281 -0.0219,0.0482 -0.11113,0.0445 -0.0986,-0.004 -0.11869,-0.0241 -0.0511,-0.0512 z m 0.5027,0.002 c 0.0582,-0.0235 0.15346,-0.0235 0.21167,0 0.0582,0.0235 0.0106,0.0427 -0.10583,0.0427 -0.11642,0 -0.16404,-0.0192 -0.10584,-0.0427 z"
         id="path1673" />
      <path
         style="fill:#a3a3a3;fill-opacity:1;stroke-width:0.0846667"
         d="m 84.301619,223.57145 -0.205257,-0.23283 0.232833,0.20525 c 0.128059,0.1129 0.232834,0.21767 0.232834,0.23284 0,0.0664 -0.06856,0.0124 -0.26041,-0.20526 z m 13.166751,-39.751 -0.248675,-0.27517 0.275167,0.24868 c 0.256497,0.2318 0.314088,0.30166 0.248674,0.30166 -0.01457,0 -0.138396,-0.12383 -0.275166,-0.27517 z m 0.04766,-10.43517 c 0.109364,-0.11641 0.217899,-0.21166 0.241182,-0.21166 0.02328,0 -0.04715,0.0952 -0.156515,0.21166 -0.109364,0.11642 -0.217898,0.21167 -0.241181,0.21167 -0.02328,0 0.04715,-0.0952 0.156514,-0.21167 z m 67.47933,-11.84297 c 0,-0.0176 0.0667,-0.0842 0.14817,-0.14816 0.13429,-0.10531 0.13728,-0.10232 0.032,0.032 -0.11061,0.14103 -0.18014,0.18588 -0.18014,0.11619 z M 40.016559,161.08745 c -0.105308,-0.13429 -0.102319,-0.13728 0.03197,-0.032 0.14103,0.11061 0.185886,0.18014 0.116197,0.18014 -0.01758,0 -0.08425,-0.0667 -0.148167,-0.14817 z m 126.291131,-0.78317 c 0.0843,-0.0931 0.1723,-0.16933 0.19558,-0.16933 0.0233,0 -0.0266,0.0762 -0.11091,0.16933 -0.0843,0.0931 -0.1723,0.16934 -0.19558,0.16934 -0.0233,0 0.0266,-0.0762 0.11091,-0.16934 z m -127.808882,-0.65616 -0.291779,-0.3175 0.3175,0.29178 c 0.295521,0.27157 0.35643,0.34322 0.291779,0.34322 -0.01415,0 -0.157023,-0.14288 -0.3175,-0.3175 z m -2.201334,-2.20134 -0.291778,-0.3175 0.3175,0.29178 c 0.174625,0.16048 0.3175,0.30335 0.3175,0.3175 0,0.0647 -0.07164,0.004 -0.343222,-0.29178 z m 133.566216,-0.6985 c 0.0843,-0.0931 0.1723,-0.16933 0.19558,-0.16933 0.0233,0 -0.0266,0.0762 -0.11091,0.16933 -0.0843,0.0931 -0.1723,0.16934 -0.19558,0.16934 -0.0233,0 0.0266,-0.0762 0.11091,-0.16934 z m -135.011797,-0.8255 c -0.105309,-0.13429 -0.10232,-0.13727 0.03197,-0.032 0.141029,0.11061 0.185886,0.18014 0.116196,0.18014 -0.01758,0 -0.08425,-0.0667 -0.148166,-0.14817 z m 136.070137,-0.30713 c 0,-0.0176 0.0667,-0.0842 0.14816,-0.14817 0.13429,-0.10531 0.13728,-0.10232 0.032,0.032 -0.1106,0.14103 -0.18013,0.18589 -0.18013,0.1162 z m -62.53438,-48.5032 -0.16129,-0.1905 0.1905,0.16129 c 0.17902,0.15157 0.22904,0.21971 0.16129,0.21971 -0.0161,0 -0.10179,-0.0857 -0.1905,-0.1905 z m -0.84667,-0.84666 -0.16129,-0.1905 0.1905,0.16129 c 0.17902,0.15157 0.22905,0.21971 0.16129,0.21971 -0.0161,0 -0.10179,-0.0857 -0.1905,-0.1905 z m 9.94558,-6.731005 c -0.10531,-0.134289 -0.10232,-0.137278 0.032,-0.03197 0.14103,0.110609 0.18588,0.180137 0.11619,0.180137 -0.0176,0 -0.0842,-0.06668 -0.14816,-0.148167 z m -28.267865,-1.0795 c 0.109364,-0.116416 0.217898,-0.211666 0.241182,-0.211666 0.02328,0 -0.04715,0.09525 -0.156515,0.211666 -0.109364,0.116417 -0.217898,0.211667 -0.241182,0.211667 -0.02328,0 0.04715,-0.09525 0.156515,-0.211667 z m 26.913195,-0.275166 c -0.10531,-0.13429 -0.10232,-0.137279 0.032,-0.03197 0.14103,0.110608 0.18589,0.180136 0.1162,0.180136 -0.0176,0 -0.0843,-0.06667 -0.14817,-0.148166 z M 91.941397,93.248285 c 0,-0.116416 0.01922,-0.164041 0.04271,-0.105833 0.02349,0.05821 0.02349,0.153458 0,0.211667 -0.02349,0.05821 -0.04271,0.01058 -0.04271,-0.105834 z m -3.230702,-5.714999 c -0.205655,-0.20955 -0.354872,-0.381 -0.331588,-0.381 0.02328,0 0.2106,0.17145 0.416255,0.381 0.205655,0.20955 0.354872,0.381 0.331588,0.381 -0.02328,0 -0.210599,-0.17145 -0.416255,-0.381 z m 13.822995,-5.18309 c 0.1287,-0.01946 0.3192,-0.01894 0.42333,0.0012 0.10414,0.02009 -0.001,0.03602 -0.23399,0.03538 -0.23283,-8.47e-4 -0.31804,-0.01708 -0.18934,-0.03654 z M 182.96605,48.07862 c 9.3e-4,-0.186267 0.0183,-0.252502 0.0385,-0.147176 0.0203,0.105316 0.0195,0.257716 -0.002,0.338666 -0.0212,0.08094 -0.0378,-0.0052 -0.0368,-0.19149 z M 33.677363,31.748316 c 0,-0.01758 0.06668,-0.08425 0.148167,-0.148166 0.134289,-0.105309 0.137278,-0.10232 0.03197,0.03197 -0.110609,0.141029 -0.180137,0.185886 -0.180137,0.116196 z m 136.516957,-1.767196 -0.16129,-0.1905 0.1905,0.16129 c 0.10477,0.0887 0.1905,0.17443 0.1905,0.1905 0,0.06775 -0.0681,0.01773 -0.21971,-0.16129 z M 35.709363,29.53662 c 0.109364,-0.116417 0.217898,-0.211667 0.241181,-0.211667 0.02328,0 -0.04715,0.09525 -0.156515,0.211667 -0.109363,0.116417 -0.217898,0.211667 -0.241181,0.211667 -0.02328,0 0.04715,-0.09525 0.156515,-0.211667 z m 3.302,-3.302 c 0.109364,-0.116417 0.217898,-0.211667 0.241181,-0.211667 0.02328,0 -0.04715,0.09525 -0.156515,0.211667 -0.109363,0.116417 -0.217898,0.211667 -0.241181,0.211667 -0.02328,0 0.04715,-0.09525 0.156515,-0.211667 z m 126.864957,-0.5715 -0.16129,-0.1905 0.1905,0.16129 c 0.10477,0.08871 0.1905,0.17443 0.1905,0.1905 0,0.06775 -0.0681,0.01773 -0.21971,-0.16129 z M 40.196696,25.144317 c 0,-0.01758 0.06667,-0.08425 0.148167,-0.148167 0.13429,-0.105309 0.137278,-0.10232 0.03197,0.03197 -0.110609,0.141029 -0.180137,0.185886 -0.180137,0.116197 z M 164.81522,24.689453 c -0.1053,-0.134289 -0.10232,-0.137278 0.032,-0.03197 0.14103,0.110609 0.18589,0.180137 0.1162,0.180137 -0.0176,0 -0.0842,-0.06668 -0.14817,-0.148167 z M 152.14835,15.97153 c 0.12871,-0.01946 0.31921,-0.01894 0.42334,0.0012 0.10414,0.02009 -10e-4,0.03602 -0.234,0.03538 -0.23283,-8.47e-4 -0.31803,-0.01708 -0.18934,-0.03654 z"
         id="path1671" />
      <path
         style="fill:#8c8c8c;fill-opacity:1;stroke-width:0.0846667"
         d="m 99.611528,227.55821 c 0.05821,-0.0235 0.153459,-0.0235 0.211667,0 0.05821,0.0235 0.01058,0.0427 -0.105833,0.0427 -0.116417,0 -0.164042,-0.0192 -0.105834,-0.0427 z m 6.139942,-0.003 c 0.0824,-0.0215 0.19668,-0.02 0.254,0.003 0.0573,0.0232 -0.0101,0.0408 -0.14978,0.039 -0.1397,-0.002 -0.18659,-0.0207 -0.10422,-0.0422 z m -7.489317,-0.0838 c 0.06112,-0.0245 0.134146,-0.0215 0.162281,0.007 0.02813,0.0281 -0.02188,0.0481 -0.111125,0.0445 -0.09864,-0.004 -0.118694,-0.0241 -0.05116,-0.0512 z m 8.974667,0 c 0.0611,-0.0245 0.13415,-0.0215 0.16228,0.007 0.0281,0.0281 -0.0219,0.0481 -0.11112,0.0445 -0.0986,-0.004 -0.1187,-0.0241 -0.0512,-0.0512 z M 95.336048,178.63462 c 9.31e-4,-0.18627 0.01828,-0.2525 0.03853,-0.14718 0.02025,0.10532 0.01948,0.25772 -0.0017,0.33867 -0.02119,0.0809 -0.03776,-0.005 -0.03682,-0.19149 z m 34.200482,-3.38667 c 0.002,-0.1397 0.0207,-0.1866 0.0422,-0.10422 0.0215,0.0824 0.0201,0.19668 -0.003,0.254 -0.0232,0.0573 -0.0408,-0.0101 -0.039,-0.14978 z m 0.003,-1.397 c 0,-0.16298 0.0174,-0.22966 0.0387,-0.14817 0.0213,0.0815 0.0213,0.21485 0,0.29634 -0.0213,0.0815 -0.0387,0.0148 -0.0387,-0.14817 z m -29.46229,-3.00567 c 9.3e-4,-0.18626 0.0183,-0.2525 0.0385,-0.14717 0.0203,0.10531 0.0195,0.25771 -0.002,0.33866 -0.0212,0.081 -0.0378,-0.005 -0.0368,-0.19149 z m 5.334,-0.93133 c 9.3e-4,-0.18627 0.0183,-0.2525 0.0385,-0.14718 0.0203,0.10532 0.0195,0.25772 -0.002,0.33867 -0.0212,0.0809 -0.0378,-0.005 -0.0368,-0.19149 z m -5.24762,-1.82033 c 0,-0.20955 0.0165,-0.29528 0.0367,-0.1905 0.0202,0.10477 0.0202,0.27622 0,0.381 -0.0202,0.10477 -0.0367,0.019 -0.0367,-0.1905 z m 5.16296,-0.97367 c 9.3e-4,-0.18627 0.0183,-0.2525 0.0385,-0.14718 0.0203,0.10532 0.0195,0.25772 -0.002,0.33867 -0.0212,0.0809 -0.0378,-0.005 -0.0368,-0.19149 z m -5.07829,-1.82033 c 0,-0.20955 0.0165,-0.29528 0.0367,-0.1905 0.0202,0.10477 0.0202,0.27622 0,0.381 -0.0202,0.10477 -0.0367,0.0191 -0.0367,-0.1905 z m 4.99533,-1.016 c 0,-0.20955 0.0165,-0.29528 0.0367,-0.1905 0.0202,0.10477 0.0202,0.27622 0,0.381 -0.0202,0.10477 -0.0367,0.019 -0.0367,-0.1905 z m -4.91238,-1.82034 c 9.3e-4,-0.18626 0.0183,-0.2525 0.0385,-0.14717 0.0203,0.10532 0.0195,0.25772 -0.002,0.33866 -0.0212,0.0809 -0.0378,-0.005 -0.0368,-0.19149 z m -59.552819,-0.6985 c -0.105309,-0.13429 -0.10232,-0.13727 0.03197,-0.032 0.141029,0.11061 0.185886,0.18014 0.116196,0.18014 -0.01758,0 -0.08425,-0.0667 -0.148166,-0.14817 z m 64.380529,-0.27516 c 0,-0.20955 0.0165,-0.29528 0.0367,-0.1905 0.0202,0.10477 0.0202,0.27622 0,0.381 -0.0202,0.10477 -0.0367,0.0191 -0.0367,-0.1905 z m 60.09028,-0.20131 c 0,-0.0176 0.0667,-0.0842 0.14817,-0.14816 0.13429,-0.10531 0.13728,-0.10232 0.032,0.032 -0.11061,0.14103 -0.18014,0.18588 -0.18014,0.11619 z M 39.762559,160.83345 c -0.105308,-0.13429 -0.102319,-0.13728 0.03197,-0.032 0.14103,0.11061 0.185886,0.18014 0.116197,0.18014 -0.01758,0 -0.08425,-0.0667 -0.148167,-0.14817 z m 126.756801,-0.72499 c 0,-0.0146 0.12383,-0.1384 0.27517,-0.27517 l 0.27516,-0.24867 -0.24867,0.27516 c -0.2318,0.2565 -0.30166,0.31409 -0.30166,0.24868 z m -66.10331,-0.43918 c 9.3e-4,-0.18626 0.0183,-0.2525 0.0385,-0.14717 0.0202,0.10532 0.0195,0.25772 -0.002,0.33866 -0.0212,0.081 -0.0378,-0.005 -0.0368,-0.19149 z m -63.01503,-1.12183 -0.802657,-0.8255 0.8255,0.80266 c 0.766716,0.7455 0.864015,0.84834 0.802657,0.84834 -0.01256,0 -0.384031,-0.37147 -0.8255,-0.8255 z m 67.67169,0.10583 c 9.4e-4,-0.18626 0.0183,-0.2525 0.0385,-0.14717 0.0203,0.10532 0.0195,0.25772 -0.002,0.33866 -0.0212,0.081 -0.0378,-0.005 -0.0368,-0.19149 z m 64.15598,-1.25415 c 0,-0.0146 0.12383,-0.1384 0.27517,-0.27517 l 0.27517,-0.24868 -0.24868,0.27517 c -0.2318,0.2565 -0.30166,0.31409 -0.30166,0.24868 z m -68.72627,-0.56618 c 0,-0.20955 0.0165,-0.29527 0.0367,-0.1905 0.0202,0.10478 0.0202,0.27623 0,0.381 -0.0202,0.10478 -0.0367,0.019 -0.0367,-0.1905 z m -65.396527,-0.65617 c -0.105309,-0.13429 -0.10232,-0.13727 0.03197,-0.032 0.141029,0.11061 0.185886,0.18014 0.116196,0.18014 -0.01758,0 -0.08425,-0.0667 -0.148166,-0.14817 z m 69.882157,-0.3175 c 9.3e-4,-0.18626 0.0183,-0.2525 0.0385,-0.14717 0.0203,0.10532 0.0195,0.25772 -0.002,0.33866 -0.0212,0.081 -0.0378,-0.005 -0.0368,-0.19149 z m 65.67998,0.0104 c 0,-0.0176 0.0667,-0.0842 0.14816,-0.14817 0.13429,-0.10531 0.13728,-0.10232 0.032,0.032 -0.1106,0.14103 -0.18013,0.18589 -0.18013,0.1162 z m -136.493471,-0.7089 c -0.105308,-0.13429 -0.102319,-0.13727 0.03197,-0.032 0.141029,0.11061 0.185885,0.18014 0.116196,0.18014 -0.01758,0 -0.08425,-0.0667 -0.148167,-0.14817 z m 66.412531,-1.12183 c 0,-0.20955 0.0165,-0.29527 0.0367,-0.1905 0.0202,0.10478 0.0202,0.27623 0,0.381 -0.0202,0.10478 -0.0367,0.019 -0.0367,-0.1905 z m 4.318,-1.016 c 0,-0.20955 0.0165,-0.29527 0.0367,-0.1905 0.0202,0.10478 0.0202,0.27623 0,0.381 -0.0202,0.10478 -0.0367,0.019 -0.0367,-0.1905 z m -4.23504,-1.82033 c 9.3e-4,-0.18627 0.0183,-0.2525 0.0385,-0.14718 0.0203,0.10532 0.0195,0.25772 -0.002,0.33867 -0.0212,0.0809 -0.0378,-0.005 -0.0368,-0.19149 z m 4.15037,-0.97367 c 0,-0.20955 0.0165,-0.29527 0.0367,-0.1905 0.0202,0.10478 0.0202,0.27623 0,0.381 -0.0202,0.10478 -0.0367,0.019 -0.0367,-0.1905 z m -4.06571,-1.82033 c 9.4e-4,-0.18627 0.0183,-0.2525 0.0385,-0.14718 0.0203,0.10532 0.0195,0.25772 -0.002,0.33867 -0.0212,0.0809 -0.0378,-0.005 -0.0368,-0.19149 z m 3.97934,-1.016 c 9.3e-4,-0.18627 0.0183,-0.2525 0.0385,-0.14718 0.0202,0.10532 0.0195,0.25772 -0.002,0.33867 -0.0212,0.0809 -0.0378,-0.005 -0.0368,-0.19149 z m -3.89296,-1.82034 c 0,-0.20955 0.0165,-0.29527 0.0367,-0.1905 0.0202,0.10478 0.0202,0.27623 0,0.381 -0.0202,0.10478 -0.0367,0.0191 -0.0367,-0.1905 z m 3.80829,-0.97366 c 9.3e-4,-0.18627 0.0183,-0.2525 0.0385,-0.14718 0.0203,0.10532 0.0195,0.25772 -0.002,0.33867 -0.0212,0.0809 -0.0378,-0.005 -0.0368,-0.19149 z m -3.72362,-1.82034 c 0,-0.20955 0.0165,-0.29527 0.0367,-0.1905 0.0202,0.10478 0.0202,0.27623 0,0.381 -0.0202,0.10478 -0.0367,0.019 -0.0367,-0.1905 z m 3.64066,-1.016 c 0,-0.20955 0.0165,-0.29527 0.0367,-0.1905 0.0202,0.10478 0.0202,0.27623 0,0.381 -0.0202,0.10478 -0.0367,0.0191 -0.0367,-0.1905 z m -3.55771,-1.82033 c 9.4e-4,-0.18627 0.0183,-0.2525 0.0385,-0.14717 0.0202,0.10531 0.0195,0.25771 -0.002,0.33866 -0.0212,0.0809 -0.0378,-0.005 -0.0368,-0.19149 z m 3.47305,-0.97367 c 0,-0.20955 0.0165,-0.29527 0.0367,-0.1905 0.0202,0.10478 0.0202,0.27623 0,0.381 -0.0202,0.10478 -0.0367,0.019 -0.0367,-0.1905 z m -3.38838,-1.82033 c 9.3e-4,-0.18627 0.0183,-0.2525 0.0385,-0.14717 0.0203,0.10531 0.0195,0.25771 -0.002,0.33866 -0.0212,0.0809 -0.0378,-0.005 -0.0368,-0.19149 z m 3.30371,-0.97367 c 0,-0.20955 0.0165,-0.29527 0.0367,-0.1905 0.0202,0.10478 0.0202,0.27623 0,0.381 -0.0202,0.10478 -0.0367,0.019 -0.0367,-0.1905 z m -81.133727,0.22203 c 0,-0.0176 0.06668,-0.0842 0.148167,-0.14816 0.13429,-0.10531 0.137278,-0.10232 0.03197,0.032 -0.110609,0.14103 -0.180137,0.18588 -0.180137,0.11619 z m 77.916397,-2.08469 c 0,-0.20955 0.0165,-0.29528 0.0367,-0.1905 0.0202,0.10477 0.0202,0.27622 0,0.381 -0.0202,0.10477 -0.0367,0.0191 -0.0367,-0.1905 z m 3.13095,-0.97367 c 9.4e-4,-0.18627 0.0183,-0.2525 0.0385,-0.14717 0.0203,0.10531 0.0195,0.25771 -0.002,0.33866 -0.0212,0.0809 -0.0378,-0.005 -0.0368,-0.19149 z m -3.04629,-1.82033 c 0,-0.20955 0.0165,-0.29528 0.0367,-0.1905 0.0202,0.10477 0.0202,0.27622 0,0.381 -0.0202,0.10477 -0.0367,0.019 -0.0367,-0.1905 z m 2.96163,-0.97367 c 9.3e-4,-0.18627 0.0183,-0.2525 0.0385,-0.14717 0.0203,0.10531 0.0195,0.25771 -0.002,0.33866 -0.0212,0.0809 -0.0378,-0.005 -0.0368,-0.19149 z m -2.87696,-1.82033 c 0,-0.20955 0.0165,-0.29528 0.0367,-0.1905 0.0202,0.10477 0.0202,0.27622 0,0.381 -0.0202,0.10477 -0.0367,0.019 -0.0367,-0.1905 z m 2.794,-1.016 c 0,-0.20955 0.0165,-0.29528 0.0367,-0.1905 0.0202,0.10477 0.0202,0.27622 0,0.381 -0.0202,0.10477 -0.0367,0.019 -0.0367,-0.1905 z m -2.71104,-1.82034 c 9.3e-4,-0.18626 0.0183,-0.2525 0.0385,-0.14717 0.0203,0.10532 0.0195,0.25772 -0.002,0.33867 -0.0212,0.0809 -0.0378,-0.005 -0.0368,-0.1915 z m 2.62637,-0.97366 c 0,-0.20955 0.0165,-0.29528 0.0367,-0.1905 0.0202,0.10477 0.0202,0.27622 0,0.381 -0.0202,0.10477 -0.0367,0.0191 -0.0367,-0.1905 z m -2.54171,-1.82034 c 9.4e-4,-0.18626 0.0183,-0.2525 0.0385,-0.14717 0.0203,0.10532 0.0195,0.25772 -0.002,0.33867 -0.0212,0.0809 -0.0378,-0.005 -0.0368,-0.1915 z m 2.45534,-1.016 c 9.3e-4,-0.18626 0.0183,-0.2525 0.0385,-0.14717 0.0202,0.10532 0.0195,0.25772 -0.002,0.33867 -0.0212,0.0809 -0.0378,-0.005 -0.0368,-0.1915 z m -2.36896,-1.82033 c 0,-0.20955 0.0165,-0.29527 0.0367,-0.1905 0.0202,0.10478 0.0202,0.27623 0,0.381 -0.0202,0.10478 -0.0367,0.019 -0.0367,-0.1905 z m 2.28429,-0.97366 c 9.3e-4,-0.18627 0.0183,-0.25251 0.0385,-0.14718 0.0203,0.10532 0.0195,0.25772 -0.002,0.33867 -0.0212,0.0809 -0.0378,-0.005 -0.0368,-0.19149 z m -2.20932,-1.651 c 0,-0.11642 0.0192,-0.16405 0.0427,-0.10584 0.0235,0.0582 0.0235,0.15346 0,0.21167 -0.0235,0.0582 -0.0427,0.0106 -0.0427,-0.10583 z m 3.13894,-2.96334 c 0,-0.16298 0.0174,-0.22966 0.0387,-0.14816 0.0213,0.0815 0.0213,0.21484 0,0.29633 -0.0213,0.0815 -0.0387,0.0148 -0.0387,-0.14817 z M 88.837695,98.836285 c 0.08429,-0.09313 0.172297,-0.169333 0.19558,-0.169333 0.02328,0 -0.02663,0.0762 -0.110913,0.169333 -0.08429,0.09313 -0.172297,0.169334 -0.19558,0.169334 -0.02328,0 0.02663,-0.0762 0.110913,-0.169334 z m 0.762,-0.762 c 0.08429,-0.09313 0.172297,-0.169333 0.19558,-0.169333 0.02328,0 -0.02663,0.0762 -0.110913,0.169333 -0.08429,0.09313 -0.172297,0.169334 -0.19558,0.169334 -0.02328,0 0.02663,-0.0762 0.110913,-0.169334 z M 116.22736,87.956619 c 0.25293,-0.256117 0.47894,-0.465667 0.50222,-0.465667 0.0233,0 -0.16462,0.20955 -0.41755,0.465667 -0.25294,0.256117 -0.47894,0.465667 -0.50222,0.465667 -0.0233,0 0.16462,-0.20955 0.41755,-0.465667 z m -27.019468,0.0635 c -0.105309,-0.13429 -0.10232,-0.137279 0.03197,-0.03197 0.141029,0.110608 0.185886,0.180137 0.116196,0.180137 -0.01758,0 -0.08425,-0.06667 -0.148166,-0.148167 z m -1.055573,-1.058333 -0.16129,-0.1905 0.1905,0.16129 c 0.179019,0.15157 0.22904,0.21971 0.16129,0.21971 -0.01607,0 -0.101795,-0.08573 -0.1905,-0.1905 z m 20.282171,-7.789334 c 0.35086,-0.37382 0.42687,-0.441037 0.42687,-0.377461 0,0.01359 -0.18097,0.194564 -0.40217,0.402167 l -0.40216,0.377461 z m 73.70587,-29.104166 c 0.0843,-0.09313 0.1723,-0.169333 0.19558,-0.169333 0.0233,0 -0.0266,0.0762 -0.11091,0.169333 -0.0843,0.09313 -0.1723,0.169334 -0.19558,0.169334 -0.0233,0 0.0266,-0.0762 0.11091,-0.169334 z M 26.728287,46.61812 26.52303,46.385286 l 0.232833,0.205258 c 0.217619,0.191846 0.271661,0.260409 0.205257,0.260409 -0.01516,0 -0.119938,-0.104775 -0.232833,-0.232833 z m 144.267603,-15.748 c -0.10531,-0.13429 -0.10232,-0.137279 0.032,-0.03197 0.14103,0.110608 0.18589,0.180137 0.1162,0.180137 -0.0176,0 -0.0842,-0.06668 -0.14817,-0.148167 z M 34.693363,30.64765 c 0,-0.01758 0.06668,-0.08425 0.148167,-0.148167 0.134289,-0.105308 0.137278,-0.10232 0.03197,0.03197 -0.110609,0.141029 -0.180137,0.185886 -0.180137,0.116197 z m 135.162287,-1.005197 -0.16129,-0.1905 0.1905,0.16129 c 0.17902,0.151571 0.22904,0.21971 0.16129,0.21971 -0.0161,0 -0.10179,-0.08573 -0.1905,-0.1905 z M 36.217363,29.02862 c 0.157971,-0.162983 0.306265,-0.296333 0.329548,-0.296333 0.02328,0 -0.08691,0.13335 -0.244882,0.296333 -0.157971,0.162983 -0.306264,0.296333 -0.329548,0.296333 -0.02328,0 0.08691,-0.13335 0.244882,-0.296333 z m 2.116666,-2.100826 c 0,-0.01457 0.123825,-0.138396 0.275167,-0.275166 l 0.275167,-0.248675 -0.248675,0.275167 c -0.2318,0.256498 -0.301659,0.314088 -0.301659,0.248674 z m 127.880951,-0.926007 -0.16129,-0.1905 0.1905,0.16129 c 0.10478,0.0887 0.1905,0.17443 0.1905,0.1905 0,0.06775 -0.0681,0.01773 -0.21971,-0.16129 z M 39.942696,25.398317 c 0,-0.01758 0.06668,-0.08425 0.148167,-0.148167 0.13429,-0.105309 0.137278,-0.10232 0.03197,0.03197 -0.110609,0.141029 -0.180137,0.185886 -0.180137,0.116197 z"
         id="path1669" />
      <path
         style="fill:#006ad1;fill-opacity:1;stroke-width:0.0846667"
         d="m 147.31887,173.3412 c -0.82829,-0.17126 -1.66674,-0.84948 -2.09119,-1.69158 -0.10562,-0.20955 -0.44319,-1.1811 -0.75015,-2.159 -3.27272,-10.42589 -7.64037,-20.53766 -12.78142,-29.591 -3.639,-6.40823 -7.60565,-12.38076 -13.10187,-19.72733 -2.05494,-2.74677 -8.18168,-10.73461 -9.08274,-11.84177 -1.4285,-1.75527 -2.89555,-3.03551 -4.23722,-3.69767 -2.01804,-0.99597 -3.71043,-0.80737 -5.878237,0.65507 -1.722052,1.16173 -3.847126,3.40886 -5.34852,5.6557 -0.357844,0.53552 -8.892354,13.71811 -18.965579,29.29466 -10.073233,15.57655 -18.455715,28.49138 -18.62775,28.69961 -0.664108,0.80383 -1.777542,1.34435 -2.922498,1.41874 -1.285071,0.0835 -1.927919,-0.16325 -3.725333,-1.42987 -8.64158,-6.08961 -16.096149,-13.46865 -22.182243,-21.95748 -2.120655,-2.95786 -4.550639,-6.81438 -4.854702,-7.70466 -0.384251,-1.12505 -0.114487,-2.2331 0.737734,-3.03026 0.566022,-0.52944 0.99474,-0.72638 2.804211,-1.28814 11.921024,-3.70093 23.5527,-8.94508 33.993666,-15.32604 6.686829,-4.08664 11.782543,-7.6977 22.494257,-15.9405 5.895272,-4.536478 6.714083,-5.247678 7.879977,-6.844364 1.166698,-1.597779 1.552211,-3.429398 1.049011,-4.984031 C 91.09148,89.883912 88.997927,87.394212 86.21843,85.29889 85.796359,84.980713 72.363679,76.253755 56.368029,65.90566 38.366076,54.259616 27.130225,46.940369 26.878731,46.695776 c -0.86592,-0.842179 -1.267875,-1.798252 -1.269602,-3.019823 -0.0019,-1.339003 0.271103,-1.874588 2.546147,-4.995333 5.300954,-7.271487 11.875499,-13.930647 19.111087,-19.357052 3.605843,-2.704245 8.437727,-5.834549 9.551483,-6.187863 0.884987,-0.280738 1.86955,-0.09872 2.638501,0.48779 0.604038,0.460713 0.928193,1.104163 1.567875,3.112169 4.616619,14.491859 10.304094,26.501394 18.341703,38.729877 3.114531,4.738471 6.389971,9.254075 11.929821,16.446745 1.201513,1.559983 2.680225,3.484033 3.286024,4.275666 1.442305,1.884731 2.143878,2.704321 3.15799,3.689232 0.995147,0.966487 1.698295,1.477594 2.661,1.934218 2.00224,0.949706 3.68991,0.727422 5.85616,-0.771313 1.37655,-0.952365 2.99231,-2.55441 4.34007,-4.303217 0.30444,-0.395038 9.05864,-13.862439 19.45379,-29.927558 10.58215,-16.354145 19.05469,-29.365033 19.25116,-29.563144 0.80341,-0.810091 1.77955,-1.20937 2.96334,-1.212097 1.42488,-0.0033 1.85906,0.218135 5.15434,2.628612 3.81425,2.790097 7.17302,5.678018 10.67164,9.175623 4.50569,4.50436 8.08492,8.872271 11.6251,14.186645 1.68693,2.532338 2.91862,4.574201 3.10445,5.146446 0.20753,0.639056 0.14065,1.609573 -0.15014,2.178897 -0.23597,0.461992 -0.88699,1.121503 -1.33658,1.353998 -0.15542,0.08037 -1.73303,0.621749 -3.50581,1.203079 -17.93508,5.881252 -31.49204,13.060214 -48.01192,25.424274 -3.06895,2.296905 -11.18521,8.53688 -12.14967,9.340943 -2.70909,2.258568 -4.064,4.407094 -4.064,6.444454 0,1.143525 0.47244,2.356933 1.44946,3.722768 0.99204,1.386831 2.99996,3.331688 4.698,4.550398 0.36751,0.26378 13.66031,8.88455 29.53954,19.15726 15.87924,10.27271 29.05638,18.83504 29.28254,19.02738 1.36197,1.15835 1.79527,3.37943 0.97628,5.0044 -0.21392,0.42446 -1.61096,2.42244 -2.85519,4.08337 -6.40462,8.54958 -14.33332,15.97712 -23.38323,21.90523 -1.82603,1.19614 -3.90649,2.44881 -4.36058,2.62558 -0.4485,0.17459 -1.18021,0.24089 -1.63064,0.14777 z"
         id="path1667" />
      <path
         style="fill:#606060;fill-opacity:1;stroke-width:0.0846667"
         d="m 101.1567,112.94365 c 0,-0.0176 0.0667,-0.0843 0.14816,-0.14817 0.13429,-0.10531 0.13728,-0.10232 0.032,0.032 -0.11061,0.14103 -0.18013,0.18589 -0.18013,0.1162 z"
         id="path1665" />
      <path
         style="fill:#494949;fill-opacity:1;stroke-width:0.0846667"
         d="m 100.0788,227.55561 c 0.0824,-0.0215 0.19668,-0.0201 0.254,0.003 0.0573,0.0232 -0.0101,0.0408 -0.14977,0.039 -0.1397,-0.002 -0.186598,-0.0207 -0.10423,-0.0422 z m 5.16467,0 c 0.0824,-0.0215 0.19668,-0.0201 0.254,0.003 0.0573,0.0232 -0.0101,0.0408 -0.14978,0.039 -0.1397,-0.002 -0.18659,-0.0207 -0.10422,-0.0422 z m -6.727317,-0.0838 c 0.06112,-0.0245 0.134146,-0.0214 0.162281,0.007 0.02814,0.0281 -0.02188,0.0482 -0.111125,0.0445 -0.09864,-0.004 -0.118694,-0.0241 -0.05116,-0.0512 z m 8.381997,0 c 0.0611,-0.0245 0.13415,-0.0214 0.16228,0.007 0.0281,0.0281 -0.0219,0.0482 -0.11112,0.0445 -0.0986,-0.004 -0.1187,-0.0241 -0.0512,-0.0512 z M 95.321375,179.13556 c 0.0041,-0.0986 0.02413,-0.11869 0.05116,-0.0512 0.02446,0.0611 0.02145,0.13414 -0.0067,0.16228 -0.02813,0.0281 -0.04815,-0.0219 -0.04448,-0.11113 z m 0,-1.016 c 0.0041,-0.0986 0.02413,-0.11869 0.05116,-0.0512 0.02446,0.0611 0.02145,0.13414 -0.0067,0.16228 -0.02813,0.0281 -0.04815,-0.0219 -0.04448,-0.11113 z m -19.303999,-2.286 c 0.0041,-0.0986 0.02413,-0.11869 0.05115,-0.0512 0.02446,0.0611 0.02146,0.13414 -0.0067,0.16228 -0.02813,0.0281 -0.04815,-0.0219 -0.04448,-0.11113 z m 53.526864,-1.26294 c 8.5e-4,-0.23284 0.0171,-0.31804 0.0365,-0.18934 0.0195,0.1287 0.0189,0.3192 -0.001,0.42333 -0.0201,0.10414 -0.036,-0.001 -0.0354,-0.23399 z m -29.46515,-4.36034 c 0,-0.20955 0.0165,-0.29527 0.0367,-0.1905 0.0202,0.10478 0.0202,0.27623 0,0.381 -0.0202,0.10478 -0.0367,0.019 -0.0367,-0.1905 z m 5.334,-1.016 c 0,-0.20955 0.0165,-0.29527 0.0367,-0.1905 0.0202,0.10478 0.0202,0.27623 0,0.381 -0.0202,0.10478 -0.0367,0.019 -0.0367,-0.1905 z m -5.24933,-1.778 c 0,-0.20955 0.0165,-0.29527 0.0367,-0.1905 0.0202,0.10478 0.0202,0.27623 0,0.381 -0.0202,0.10478 -0.0367,0.0191 -0.0367,-0.1905 z m 5.16466,-1.016 c 0,-0.20955 0.0165,-0.29527 0.0367,-0.1905 0.0202,0.10478 0.0202,0.27623 0,0.381 -0.0202,0.10478 -0.0367,0.019 -0.0367,-0.1905 z m -5.08171,-1.82033 c 9.4e-4,-0.18627 0.0183,-0.2525 0.0385,-0.14718 0.0202,0.10532 0.0195,0.25772 -0.002,0.33867 -0.0212,0.0809 -0.0378,-0.005 -0.0368,-0.19149 z m 4.99705,-0.97367 c 0,-0.20955 0.0165,-0.29527 0.0367,-0.1905 0.0202,0.10478 0.0202,0.27623 0,0.381 -0.0202,0.10478 -0.0367,0.019 -0.0367,-0.1905 z m -4.91067,-1.86266 c 0,-0.20955 0.0165,-0.29528 0.0367,-0.1905 0.0202,0.10477 0.0202,0.27622 0,0.381 -0.0202,0.10477 -0.0367,0.019 -0.0367,-0.1905 z m 4.82429,-0.97367 c 9.3e-4,-0.18627 0.0183,-0.2525 0.0385,-0.14718 0.0203,0.10532 0.0195,0.25772 -0.002,0.33867 -0.0212,0.0809 -0.0378,-0.005 -0.0368,-0.19149 z m -4.73962,-1.82033 c 0,-0.20955 0.0165,-0.29528 0.0367,-0.1905 0.0202,0.10477 0.0202,0.27622 0,0.381 -0.0202,0.10477 -0.0367,0.019 -0.0367,-0.1905 z m 4.65495,-0.97367 c 9.4e-4,-0.18627 0.0183,-0.2525 0.0385,-0.14718 0.0203,0.10532 0.0195,0.25772 -0.002,0.33867 -0.0212,0.0809 -0.0378,-0.005 -0.0368,-0.19149 z m -4.57029,-1.82033 c 0,-0.20955 0.0165,-0.29528 0.0367,-0.1905 0.0202,0.10477 0.0202,0.27622 0,0.381 -0.0202,0.10477 -0.0367,0.019 -0.0367,-0.1905 z m 4.48734,-1.016 c 0,-0.20955 0.0165,-0.29528 0.0367,-0.1905 0.0202,0.10477 0.0202,0.27622 0,0.381 -0.0202,0.10477 -0.0367,0.019 -0.0367,-0.1905 z m -4.40438,-1.82034 c 9.3e-4,-0.18626 0.0183,-0.2525 0.0385,-0.14717 0.0203,0.10532 0.0195,0.25772 -0.002,0.33867 -0.0212,0.0809 -0.0378,-0.005 -0.0368,-0.1915 z m 4.31971,-0.97366 c 0,-0.20955 0.0165,-0.29528 0.0367,-0.1905 0.0202,0.10477 0.0202,0.27622 0,0.381 -0.0202,0.10477 -0.0367,0.019 -0.0367,-0.1905 z m -4.23504,-1.82034 c 9.3e-4,-0.18626 0.0183,-0.2525 0.0385,-0.14717 0.0203,0.10532 0.0195,0.25772 -0.002,0.33867 -0.0212,0.0809 -0.0378,-0.005 -0.0368,-0.1915 z m 4.14866,-1.016 c 9.4e-4,-0.18626 0.0183,-0.2525 0.0385,-0.14717 0.0203,0.10532 0.0195,0.25772 -0.002,0.33867 -0.0212,0.0809 -0.0378,-0.005 -0.0368,-0.1915 z m -4.06229,-1.82033 c 0,-0.20955 0.0165,-0.29527 0.0367,-0.1905 0.0202,0.10478 0.0202,0.27623 0,0.381 -0.0202,0.10478 -0.0367,0.0191 -0.0367,-0.1905 z m 3.97763,-0.97367 c 9.3e-4,-0.18626 0.0183,-0.2525 0.0385,-0.14717 0.0202,0.10532 0.0195,0.25772 -0.002,0.33867 -0.0212,0.0809 -0.0378,-0.005 -0.0368,-0.1915 z m -3.89296,-1.82033 c 0,-0.20955 0.0165,-0.29527 0.0367,-0.1905 0.0202,0.10478 0.0202,0.27623 0,0.381 -0.0202,0.10478 -0.0367,0.019 -0.0367,-0.1905 z m 3.81,-1.016 c 0,-0.20955 0.0165,-0.29527 0.0367,-0.1905 0.0202,0.10478 0.0202,0.27623 0,0.381 -0.0202,0.10478 -0.0367,0.0191 -0.0367,-0.1905 z m -3.72704,-1.82033 c 9.3e-4,-0.18627 0.0183,-0.2525 0.0385,-0.14718 0.0203,0.10532 0.0195,0.25772 -0.002,0.33867 -0.0212,0.0809 -0.0378,-0.005 -0.0368,-0.19149 z m 3.64237,-0.97367 c 0,-0.20955 0.0165,-0.29527 0.0367,-0.1905 0.0202,0.10478 0.0202,0.27623 0,0.381 -0.0202,0.10478 -0.0367,0.019 -0.0367,-0.1905 z m -3.55771,-1.82033 c 9.4e-4,-0.18627 0.0183,-0.2525 0.0385,-0.14718 0.0202,0.10532 0.0195,0.25772 -0.002,0.33867 -0.0212,0.0809 -0.0378,-0.005 -0.0368,-0.19149 z m 3.47134,-1.016 c 9.3e-4,-0.18627 0.0183,-0.2525 0.0385,-0.14718 0.0203,0.10532 0.0195,0.25772 -0.002,0.33867 -0.0212,0.0809 -0.0378,-0.005 -0.0368,-0.19149 z m -3.38496,-1.82034 c 0,-0.20955 0.0165,-0.29527 0.0367,-0.1905 0.0202,0.10478 0.0202,0.27623 0,0.381 -0.0202,0.10478 -0.0367,0.0191 -0.0367,-0.1905 z m 3.30029,-0.97366 c 9.3e-4,-0.18627 0.0183,-0.2525 0.0385,-0.14718 0.0203,0.10532 0.0195,0.25772 -0.002,0.33867 -0.0212,0.0809 -0.0378,-0.005 -0.0368,-0.19149 z m -3.21562,-1.82034 c 0,-0.20955 0.0165,-0.29527 0.0367,-0.1905 0.0202,0.10478 0.0202,0.27623 0,0.381 -0.0202,0.10478 -0.0367,0.019 -0.0367,-0.1905 z m 3.13266,-1.016 c 0,-0.20955 0.0165,-0.29527 0.0367,-0.1905 0.0202,0.10478 0.0202,0.27623 0,0.381 -0.0202,0.10478 -0.0367,0.019 -0.0367,-0.1905 z m -3.04971,-1.82033 c 9.4e-4,-0.18627 0.0183,-0.2525 0.0385,-0.14717 0.0203,0.10531 0.0195,0.25771 -0.002,0.33866 -0.0212,0.0809 -0.0378,-0.005 -0.0368,-0.19149 z m 2.96505,-0.97367 c 0,-0.20955 0.0165,-0.29527 0.0367,-0.1905 0.0202,0.10478 0.0202,0.27623 0,0.381 -0.0202,0.10478 -0.0367,0.019 -0.0367,-0.1905 z m -2.88038,-1.82033 c 9.3e-4,-0.18627 0.0183,-0.2525 0.0385,-0.14717 0.0203,0.10531 0.0195,0.25771 -0.002,0.33866 -0.0212,0.0809 -0.0378,-0.005 -0.0368,-0.19149 z m 2.79571,-0.97367 c 0,-0.20955 0.0165,-0.29527 0.0367,-0.1905 0.0202,0.10478 0.0202,0.27623 0,0.381 -0.0202,0.10478 -0.0367,0.019 -0.0367,-0.1905 z m -2.70933,-1.86266 c 0,-0.20955 0.0165,-0.29528 0.0367,-0.1905 0.0202,0.10477 0.0202,0.27622 0,0.381 -0.0202,0.10477 -0.0367,0.0191 -0.0367,-0.1905 z m 2.62295,-0.97367 c 9.4e-4,-0.18627 0.0183,-0.2525 0.0385,-0.14717 0.0203,0.10531 0.0195,0.25771 -0.002,0.33866 -0.0212,0.0809 -0.0378,-0.005 -0.0368,-0.19149 z m -2.53829,-1.82033 c 0,-0.20955 0.0165,-0.29528 0.0367,-0.1905 0.0202,0.10477 0.0202,0.27622 0,0.381 -0.0202,0.10477 -0.0367,0.019 -0.0367,-0.1905 z m 2.45363,-0.97367 c 9.3e-4,-0.18627 0.0183,-0.2525 0.0385,-0.14717 0.0202,0.10531 0.0195,0.25771 -0.002,0.33866 -0.0212,0.0809 -0.0378,-0.005 -0.0368,-0.19149 z m -2.36896,-1.82033 c 0,-0.20955 0.0165,-0.29528 0.0367,-0.1905 0.0202,0.10477 0.0202,0.27622 0,0.381 -0.0202,0.10477 -0.0367,0.019 -0.0367,-0.1905 z m 2.286,-1.016 c 0,-0.20955 0.0165,-0.29528 0.0367,-0.1905 0.0202,0.10477 0.0202,0.27622 0,0.381 -0.0202,0.10477 -0.0367,0.019 -0.0367,-0.1905 z m 0.91495,-3.43605 c 0.004,-0.0986 0.0241,-0.1187 0.0512,-0.0512 0.0245,0.0611 0.0215,0.13415 -0.007,0.16228 -0.0281,0.0281 -0.0482,-0.0219 -0.0445,-0.11112 z m 0,-0.84667 c 0.004,-0.0986 0.0241,-0.1187 0.0512,-0.0512 0.0245,0.0611 0.0215,0.13415 -0.007,0.16228 -0.0281,0.0281 -0.0482,-0.0219 -0.0445,-0.11112 z"
         id="path1663" />
      <path
         style="fill:#000000;fill-opacity:1;stroke-width:0.0846667"
         d="m 99.251695,227.52188 c -6.773977,-0.38464 -12.571874,-1.87193 -14.677567,-3.76513 -0.670679,-0.603 -0.82429,-0.93269 -0.983776,-2.11147 -0.0756,-0.5588 -0.821318,-5.9309 -1.657147,-11.938 l -1.519691,-10.922 -2.161506,-11.176 c -2.021662,-10.4529 -2.164875,-11.25543 -2.213483,-12.40366 -0.05995,-1.41643 0.05647,-2.79107 0.358682,-4.23485 0.37327,-1.78328 0.660773,-2.46978 2.002722,-4.78215 6.985221,-12.03656 12.999991,-23.45485 15.432981,-29.29759 1.395078,-3.35023 3.241455,-8.97497 6.016142,-18.32741 0.775178,-2.61287 0.819558,-2.80506 0.879688,-3.81 0.0703,-1.17525 0.1249,-1.36581 0.5201,-1.81592 0.90878,-1.03505 2.58281,-0.90026 3.26442,0.26282 0.20694,0.35313 0.24052,0.51807 0.29757,1.4624 0.0625,1.03383 0.0949,1.16757 1.13039,4.6627 1.96817,6.64329 3.82792,12.44658 4.95173,15.45166 2.12663,5.68671 7.03217,15.22898 15.01643,29.21 2.63933,4.62168 2.80961,4.98282 3.21788,6.82486 0.32603,1.471 0.41829,2.53392 0.36937,4.25545 l -0.0436,1.53503 -2.16662,11.17185 -2.16662,11.17186 -1.61107,11.6458 c -0.88608,6.40521 -1.63027,11.76417 -1.65375,11.90882 -0.20151,1.24132 -2.48992,2.62688 -5.86974,3.55397 -4.52944,1.24241 -10.8813,1.79926 -16.733515,1.46696 z m 5.020735,-41.60237 c 1.34693,-0.28333 2.56437,-0.92654 3.59635,-1.90007 2.72763,-2.57311 3.12613,-6.64344 0.94993,-9.70282 -0.64797,-0.91094 -1.52725,-1.66049 -2.76969,-2.361 -0.31663,-0.17853 -0.41684,-0.29053 -0.48382,-0.54075 -0.0465,-0.17357 -0.4283,-12.01229 -0.84851,-26.30825 -0.42021,-14.29597 -0.7957,-26.48382 -0.83445,-27.08411 l -0.0704,-1.09146 -0.31032,-0.28438 c -0.26758,-0.24522 -0.36996,-0.28438 -0.74336,-0.28438 -0.37729,0 -0.46913,0.0361 -0.71332,0.28027 -0.20166,0.20166 -0.29476,0.38569 -0.33195,0.65616 -0.0284,0.20674 -0.41403,12.47162 -0.85689,27.25528 -0.65852,21.98243 -0.82698,26.91259 -0.924674,27.06169 -0.06571,0.10028 -0.37885,0.32441 -0.695875,0.49807 -2.629722,1.44052 -4.212463,4.44006 -3.851377,7.29894 0.400329,3.16959 2.62697,5.70992 5.657466,6.45448 0.829,0.20368 2.39115,0.22898 3.23091,0.0523 z"
         id="path1661" />
    </g>
  </g>
</svg>
